<?xml version="1.0" encoding="UTF-8"?>
<svg id="Layer_1" data-name="Layer 1" xmlns="http://www.w3.org/2000/svg" viewBox="0 0 3033.19 2990.13">
  <defs>
    <style>
      .cls-1, .cls-2 {
        stroke-width: 0px;
      }

      .cls-2 {
        fill: #fff;
      }
    </style>
  </defs>
  <g id="Re_Logo_White_Fill" data-name="Re Logo White Fill">
    <circle class="cls-2" cx="1516.6" cy="1500.97" r="1308.26"/>
  </g>
  <g id="Re_Logo_Blank" data-name="Re Logo Blank">
    <path class="cls-1" d="m1194.08,1009.46c-48.45-33.31-139.6-49.98-273.45-49.98h-52.14v422.87h52.14c140.5,0,233.32-15.19,278.44-45.58,45.1-30.38,67.67-83.29,67.67-158.71s-24.23-135.27-72.66-168.6Z"/>
    <path class="cls-1" d="m1516.6,143.34c-753.68,0-1364.65,608.13-1364.65,1358.29s610.98,1358.29,1364.65,1358.29,1364.65-608.13,1364.65-1358.29S2270.27,143.34,1516.6,143.34Zm-221.02,2161.64l-427.09-751.28v751.28h-347.22V696.97h496.98c197.46,0,345.36,37.89,443.73,113.68,98.35,75.79,147.54,189.84,147.54,342.14,0,110.57-33.66,205.03-100.95,283.38-67.3,78.36-154.2,124.11-260.69,137.29l448.17,731.51h-400.47Zm1351.43-461.33h-817.57c12.57,77.62,41.05,135.65,85.42,174.09,44.37,38.44,104.64,57.66,180.82,57.66,57.69,0,107.41-10.98,149.21-32.95,41.77-21.97,76.72-55.28,104.83-99.95l255.14,126.31c-59.18,94.46-130.9,164.58-215.21,210.34-84.31,45.75-184.53,68.65-300.63,68.65-176.02,0-315.43-51.98-418.21-155.97-102.8-103.97-154.2-243.84-154.2-419.57s53.8-308.26,161.41-417.38c107.6-109.1,245.33-163.66,413.22-163.66s309.86,51.07,410.45,153.22c100.57,102.15,150.87,241.47,150.87,417.93,0,9.53-.38,19.96-1.11,31.3-.75,11.36-2.22,28.01-4.44,49.98Z"/>
    <path class="cls-1" d="m2259.3,1500.4c-41.05-34.77-97.07-52.17-168.06-52.17s-127.76,17.4-170.28,52.17c-42.54,34.79-69.71,86.22-81.54,154.32h494.76c-8.88-68.1-33.83-119.53-74.88-154.32Z"/>
  </g>
</svg>